<svg enable-background="new 0 0 100 100" height="512" viewBox="0 0 100 100" width="512" xmlns="http://www.w3.org/2000/svg"><g fill="#3a556a"><path d="m41.6457214 59.1607704c.051487.4423332-1.0389977 1.0184021-1.5841751 1.5430489-.4526291.4320374-.9772758.8332443-1.2550468 1.3578911-.1131401.2160492.3497849 1.0492973.5555382 1.0492973 1.7488022.0411224 3.7032967.3806114 5.1743279-.277771.8641357-.3909111.9772797-2.4586067 1.4299088-3.7753105.0308914-.0926132.0617218-.1851578.0720177-.2880669z"/><path d="m60.5093079 59.1521759c-.9464493.2571754-1.7899895.3085976-2.4174843.6995087-.7406311.4423332-1.4299049 1.1007156-1.8927727 1.8311157-.5966606.9257927-.1337357 1.4401436.9566841 1.4401436 2.1499481-.0205307 4.310257 0 6.4602051-.0102348 1.9236641 0 2.0779915-.0926094 2.2220268-2.036869.0278778-.3800507.1018372-.6808624.2299271-.922966z"/><path d="m41.6506844 51.3944283-14.3397675-4.668766s.0485344.1250076.1515045.3486557c.7977066 1.7327919 4.8628426 9.3891449 14.9511833 10.7674446.0522385-.6669236-.7629203-6.4473343-.7629203-6.4473343z"/><path d="m84.72155 57.8827972c-2.1955261-1.7804451-4.9374313-2.8898888-7.445137-4.2800522-.4469833-.2478218-.9522247-.3905983-1.4958344-.6080284l-2.4899368 4.3828354c2.9448242.7877235 5.8187027 1.7952042 8.1334076 3.8790359 1.9890213 1.7906799 1.936409 3.6298332-.3347168 5.0603065-1.6703796 1.0521164-3.5493393 1.9013138-5.4491501 2.4381409-7.2683334 2.0536957-14.7151031 1.8194962-22.1463051 1.3229828-3.6071053-.2410431-7.1941833-.7713394-10.7975845-1.087532-.4553909-.0399323-.9551773.4268875-1.4343643.6589508.3970642.2764435.7613525.7138824 1.1967163.8026657 2.4904404.5079422 4.9885445.9940414 7.5011482 1.3747177 7.6132202 1.1535797 15.250679 1.8677826 22.9317093.696434 4.1413574-.6315765 8.1699524-1.6489105 11.5416718-4.3327332 3.8856277-3.0928877 4.139595-7.1845778.2883758-10.3077239z"/></g><path d="m75.8191681 53.0000763-2.4894333 4.3822746c-.3909149-.1028442-.9155579.1954536-1.3578949.3600197-1.5019226.5349426-2.9729538 1.2241554-4.5160065 1.5945358-.7201004.1748619-1.1727295.4217377-1.4299088.8949623l-5.5549431-.9978714c-1.2756386-.8640709-2.2940407-1.594471-3.3741646-2.2425575-.0514221-.0308304-.1028442-.0514221-.164566-.0617218 0 0-.0102959 0-.0102959-.0102959-.2674713-.061718-.6172562-.0102959-.9155579.0102959-2.8598175.2674751-5.7092743.6171951-8.569088.8024178-.565773.0308266-.96698.1028442-1.193264.4217377-.1131439.1440353-.1748619.3497887-.2057533.6274948l-4.3925705.3909111c-.1542664-1.193264-.6068954-2.3557014-1.93396-3.0449142-2.5408592-1.3167648-5.0817795-2.7054863-7.4271851-4.3411446-1.4196091-.9772797-2.2528534-2.9832573-3.7341843-3.6210442-1.3990173-.6068993-3.3741665.2571754-4.9891701-.0617218-1.4813309-.2982979-2.8906441-1.028698-4.2897243-1.7179108-.2159863-.1028442-.4320374-.2057533-.6480865-.3085976-.4423332-.2160492-.8743687-.462925-1.2961082-.7304001-.5555382-.3394241-1.1110134-.7098045-1.6767864-1.0389938-.3703804-.2056923-.7715254-.3600235-1.1521397-.565773-.0102968-.0102997-.0205936-.0102997-.0308905-.0205307-2.3762951-1.3578949-2.4894371-1.9545555-.8332443-4.1662865.0617189-.0822525.1234388-.1542664.1851578-.2365799 2.1603079-2.8700523 4.598321-5.4623947 7.776969-7.2420273.5555382-.3086605 1.1213112-.6377888 1.7179127-.8127136 2.3557625-.6995087 4.6600399-1.2858734 6.3985462-3.3741035.6583824-.7818203 2.3145733-1.0492935 3.4976063-1.0081673 2.2013702.0823135 3.0860977 1.7899895 2.4791374 4.3719749 1.6767883.8641357 3.4255905.3600826 5.102375.0823135 4.3410835-.7201023 8.6410446-1.7179127 12.992485-2.2939816 5.2566452-.6995087 10.3589554.0925484 15.0292969 2.7775021 4.4748154 2.5717506 6.8820038 6.5219231 7.5609131 11.5934067.4218065 3.1890069.4629289 6.3368264-.5554732 9.5874902z" fill="#64798a"/><circle cx="25.254" cy="36.103" fill="#3a556a" r="2.057"/><path d="m23.8801155 45.06884c-.5349426.4834595-1.0904179.7509308-1.6562538.9566841-.565773.2056885-1.131546.3291931-1.7076149.3703194-.4217396.0411224-.8332443.0411224-1.2447491-.0102997-.2159863-.1028442-.4320374-.2057533-.6480865-.3085976-.4423332-.2160492-.8743687-.462925-1.2961082-.7304001.4423332-.2777061.8743687-.4834557 1.306406-.6377869.5657711-.1954575 1.1316071-.3085976 1.7076759-.3600197.565773-.0514221 1.1521397-.0308914 1.7385063.0720139.5863667.1028481 1.1829681.2674104 1.8002243.6480866z" fill="#3a556a"/><path d="m15.2390108 41.8078156c0 .7406998-.2777691 1.4196129-.740634 1.9339638-.0102968-.0102997-.0205936-.0102997-.0308905-.0205307-2.3762951-1.3578949-2.4894371-1.9545555-.8332443-4.1662865.0617189-.0822525.1234388-.1542664.1851578-.2365799.853839.5040512 1.419611 1.4299049 1.419611 2.4894333z" fill="#e56353"/><path d="m56.9219551 56.9194221c-.2674713-.061718-.6172562-.0102959-.9155579.0102959-2.8598175.2674751-5.7092743.6171951-8.569088.8024178-.565773.0308266-.96698.1028442-1.193264.4217377 0-.0102959-.0102997-.0308266-.0102997-.0411224-.123436-.6069603-.1337357-1.2344551-.0205917-1.8414154.0168304-.0878563.0367165-.178093.0574951-.2699051.1630898-.7205353.6196098-1.3135681 1.2137566-1.7526131.9494591-.7016068 1.5242538-1.9688263 1.7634239-3.1724014.2348633-1.1866913.2914963-2.4772758 1.1694031-3.3900452.5766411-.5995407 1.5056839-.8339233 2.1883965-.3586655.8397636.5845833.7467041 1.8328857.7467041 2.8537445 0 2.6540642 1.3887825 5.2566414 3.569622 6.7379722z" fill="#3a556a"/><path d="m28.8588905 30.8930111c.044548-.8978519.6446877-1.7814522 1.5251884-2.2510338.4339695-.24757.9326267-.3814316 1.439785-.4111919.5118599-.0323982 1.01017.047781 1.5626335.2981129.5739059.2516479.937664.7803764 1.1444397 1.20331.0983925.2189999.2071152.4259453.2732201.7614155.0717773.3378563.0056267.7187214-.1354446.989521-.2788849.554472-.6967201.8087559-1.0519562 1.0433292-.3715935.215107-.7399025.4336052-1.1571426.6021271.1775742-.4134521.4040756-.7769241.627285-1.1437263.2329407-.3436947.4296303-.6919117.4535866-.9224014.0063477-.1177254-.0227051-.1701527-.0556068-.2362671-.0386353-.0686893-.1300583-.2318096-.2299767-.377224-.1993828-.2868099-.3605652-.4808216-.5676537-.5451145-.2070122-.0961285-.5341148-.1974659-.8585472-.2130375-.3249607-.0286293-.6581421-.001318-.9955235.0634155-.6666908.1506252-1.3421592.5158577-1.974287 1.1387653z" fill="#3a556a"/><circle cx="24.913" cy="35.666" fill="#ebf0f3" r=".6"/></svg>