<svg height="512pt" viewBox="-106 0 512 512.00312" width="512pt" xmlns="http://www.w3.org/2000/svg"><path d="m199.300781 332.410156c-7.367187-21.609375-18.058593-39.902344-30.558593-49.402344h-37.480469c-12.5 9.5-23.1875 27.78125-30.558594 49.390626-6.75 19.800781-10.699219 42.410156-10.699219 63.601562 0 55.226562 26.859375 80 60 80 33.136719 0 60-24.773438 60-80 0-21.191406-3.953125-43.789062-10.703125-63.589844zm0 0" fill="#ffc06c"/><path d="m150.003906 156c-22.082031 0-40 17.917969-40 40 0 14.800781 8.039063 27.730469 20 34.648438v45.351562c0 11.0625 8.980469 20 20 20 11.027344 0 20-8.929688 20-20v-45.351562c11.957032-6.917969 20-19.847657 20-34.648438 0-22.078125-17.921875-40-40-40zm0 0" fill="#e09532"/><path d="m160.003906 376c0 5.523438-4.476562 10-10 10-5.523437 0-10-4.476562-10-10s4.476563-10 10-10c5.523438 0 10 4.476562 10 10zm0 0"/><path d="m41.058594 291.527344-40 80c-2.46875 4.941406-.46875 10.945312 4.472656 13.417968 4.945312 2.46875 10.949219.460938 13.417969-4.472656l37.703125-75.410156 49.386718-7.894531c-5.226562 8.414062-9.917968 18.324219-13.867187 29.378906l-48.6875 41.871094c-2.210937 1.902343-3.480469 4.667969-3.480469 7.582031v83.640625l-18.945312 37.886719c-2.46875 4.941406-.46875 10.949218 4.472656 13.417968 4.949219 2.472657 10.949219.457032 13.417969-4.472656l20-40c.691406-1.386718 1.054687-2.917968 1.054687-4.472656v-81.410156l23.210938-19.960938c-2.097656 11.890625-3.210938 23.890625-3.210938 35.371094 0 66.355469 36.160156 90 70 90s70-23.644531 70-90c0-11.480469-1.113281-23.480469-3.210937-35.367188l23.210937 19.957032v81.410156c0 1.550781.359375 3.082031 1.054688 4.46875l20 40c2.472656 4.941406 8.476562 6.941406 13.417968 4.472656 4.9375-2.46875 6.941407-8.476562 4.472657-13.417968l-18.945313-37.886719v-83.636719c0-2.914062-1.269531-5.683594-3.480468-7.585938l-48.6875-41.855468c-3.949219-11.0625-8.640626-20.976563-13.871094-29.390625l49.390625 7.894531 37.703125 75.410156c2.472656 4.941406 8.480468 6.9375 13.417968 4.46875 4.941407-2.46875 6.941407-8.476562 4.472657-13.414062l-40-80c-1.441407-2.882813-4.183594-4.894532-7.367188-5.402344l-63.507812-10.152344 47.476562-31.652344c1.683594-1.121093 2.988281-2.730468 3.738281-4.605468l32-80c2.050782-5.128906-.441406-10.949219-5.570312-13-5.128906-2.050782-10.949219.445312-13 5.570312l-30.84375 77.117188-41.871094 27.914062v-21.335937c12.457032-9.378907 20-24.203125 20-39.980469 0-9.953125-2.894531-19.464844-8.28125-27.574219l25.351563-25.355469c1.875-1.875 2.929687-4.417968 2.929687-7.070312v-101.855469l17.070313-17.074219c3.90625-3.902343 3.90625-10.234374 0-14.140624-3.902344-3.90625-10.234375-3.90625-14.140625 0l-20 20c-1.875 1.875-2.929688 4.417968-2.929688 7.070312v101.855469l-22.425781 22.425781c-2.632813-1.75-5.417969-3.234375-8.3125-4.445312l10.226563-30.671876c1.746093-5.242187-1.085938-10.90625-6.324219-12.652343-5.242188-1.746094-10.902344 1.085937-12.648438 6.324219l-10.515625 31.53125-10.511718-31.53125c-1.746094-5.238282-7.410157-8.070313-12.648438-6.324219-5.242188 1.746093-8.070312 7.410156-6.324219 12.652343l10.226563 30.671876c-2.898438 1.210937-5.679688 2.695312-8.316406 4.445312l-22.421876-22.425781v-101.855469c0-2.652344-1.054687-5.195312-2.929687-7.070312l-20-20c-3.90625-3.90625-10.238281-3.90625-14.144531 0s-3.90625 10.238281 0 14.144531l17.070312 17.070312v101.855469c0 2.652344 1.054688 5.195312 2.929688 7.070312l25.355468 25.355469c-5.386718 8.109375-8.285156 17.621094-8.285156 27.574219 0 15.777344 7.542969 30.597656 20 39.976562v21.335938l-41.867187-27.910156-30.847657-77.117188c-2.050781-5.128906-7.871093-7.621094-13-5.570312-5.125 2.050781-7.621093 7.871094-5.570312 13l32 79.996094c.75 1.878906 2.054688 3.484374 3.738281 4.609374l47.480469 31.648438-63.511719 10.15625c-3.183593.507812-5.925781 2.519531-7.367187 5.402344zm108.945312-45.527344c3.367188 0 6.71875-.347656 10-1.015625v30.945313.039062.03125c0 5.636719-4.601562 10-10 10-5.507812 0-10-4.46875-10-10v-.03125c0-.011719 0-.023438 0-.039062v-30.945313c3.277344.667969 6.628906 1.015625 10 1.015625zm0 220c-36.496094 0-50-33.300781-50-70 0-30.769531 10.035156-74.367188 29.84375-97.785156 2.984375 2.714844 6.433594 4.765625 10.15625 6.082031v31.703125c0 5.523438 4.476563 10 10 10 5.523438 0 10-4.476562 10-10v-31.753906c3.746094-1.339844 7.191406-3.402344 10.128906-6.058594 19.769532 23.351562 29.871094 66.742188 29.871094 97.8125 0 36.683594-13.496094 70-50 70zm0-240c-16.8125 0-30-13.710938-30-30 0-16.546875 13.429688-30 30-30 16.542969 0 30 13.433594 30 30 0 16.285156-13.183594 30-30 30zm0 0"/></svg>